<svg xmlns="http://www.w3.org/2000/svg" viewBox="0 0 256 256" fill="none">
  <defs>
    <linearGradient id="shield" x1="0" y1="0" x2="0" y2="1">
      <stop offset="0%" stop-color="#1B89E8"/>
      <stop offset="100%" stop-color="#0561B8"/>
    </linearGradient>
    <linearGradient id="badge" x1="0" y1="0" x2="0" y2="1">
      <stop offset="0%" stop-color="#34D27A"/>
      <stop offset="100%" stop-color="#16A34A"/>
    </linearGradient>
    <filter id="shadow" x="-20%" y="-20%" width="140%" height="140%">
      <feDropShadow dx="0" dy="4" stdDeviation="6" flood-opacity="0.18"/>
    </filter>
  </defs>

  <path d="M128 16 L224 48 L224 128 C224 188 184 224 128 240 C72 224 32 188 32 128 L32 48 Z"
        fill="url(#shield)" filter="url(#shadow)"/>

  <path d="M128 32 L208 58 L208 128 C208 178 176 208 128 220 C80 208 48 178 48 128 L48 58 Z"
        fill="#1F95F4" opacity="0.18"/>

  <text x="128" y="152" text-anchor="middle"
        font-family="-apple-system, BlinkMacSystemFont, 'Segoe UI', system-ui, sans-serif"
        font-size="96" font-weight="800" fill="#FFFFFF" letter-spacing="-6">11</text>

  <circle cx="200" cy="200" r="34" fill="url(#badge)" filter="url(#shadow)"/>
  <path d="M184 200 L196 212 L218 188" stroke="#FFFFFF" stroke-width="7"
        fill="none" stroke-linecap="round" stroke-linejoin="round"/>
</svg>
