<svg xmlns="http://www.w3.org/2000/svg" viewBox="0 0 880 220" fill="none">
  <defs>
    <linearGradient id="shield" x1="0" y1="0" x2="0" y2="1">
      <stop offset="0%" stop-color="#1B89E8"/>
      <stop offset="100%" stop-color="#0561B8"/>
    </linearGradient>
    <linearGradient id="badge" x1="0" y1="0" x2="0" y2="1">
      <stop offset="0%" stop-color="#34D27A"/>
      <stop offset="100%" stop-color="#16A34A"/>
    </linearGradient>
    <filter id="shadow" x="-20%" y="-20%" width="140%" height="140%">
      <feDropShadow dx="0" dy="3" stdDeviation="5" flood-opacity="0.16"/>
    </filter>
  </defs>

  <g transform="translate(20,10) scale(0.78)">
    <path d="M128 16 L224 48 L224 128 C224 188 184 224 128 240 C72 224 32 188 32 128 L32 48 Z"
          fill="url(#shield)" filter="url(#shadow)"/>
    <path d="M128 32 L208 58 L208 128 C208 178 176 208 128 220 C80 208 48 178 48 128 L48 58 Z"
          fill="#1F95F4" opacity="0.18"/>
    <text x="128" y="152" text-anchor="middle"
          font-family="-apple-system, BlinkMacSystemFont, 'Segoe UI', system-ui, sans-serif"
          font-size="96" font-weight="800" fill="#FFFFFF" letter-spacing="-6">11</text>
    <circle cx="200" cy="200" r="34" fill="url(#badge)" filter="url(#shadow)"/>
    <path d="M184 200 L196 212 L218 188" stroke="#FFFFFF" stroke-width="7"
          fill="none" stroke-linecap="round" stroke-linejoin="round"/>
  </g>

  <text x="240" y="118"
        font-family="-apple-system, BlinkMacSystemFont, 'Segoe UI', system-ui, sans-serif"
        font-size="76" font-weight="800" fill="#0F2236" letter-spacing="-2">Win11 Hardening</text>
  <text x="242" y="158"
        font-family="-apple-system, BlinkMacSystemFont, 'Segoe UI', system-ui, sans-serif"
        font-size="22" font-weight="500" fill="#475569" letter-spacing="0.2">Harden Windows 11 in 1 click — open source, fully reversible</text>
</svg>
